<?xml version="1.0" encoding="UTF-8" standalone="no"?>
<svg width="24px" height="24px" viewBox="0 0 24 24" version="1.1" xmlns="http://www.w3.org/2000/svg" xmlns:xlink="http://www.w3.org/1999/xlink">
    <title>icon-information</title>
    <desc>Created with Sketch.</desc>
    <defs></defs>
    <g id="Symbols" stroke="none" stroke-width="1" fill="none" fill-rule="evenodd">
        <g id="icon-information" fill="#ffffff">
            <path d="M13.75,11.1484375 C13.75,10.796875 13.6328125,10.5625 13.515625,10.2109375 C13.28125,9.625 12.6953125,9.2734375 11.875,9.2734375 C11.171875,9.2734375 10.5859375,9.625 10.234375,10.2109375 C10.1171875,10.5625 10,10.796875 10,11.1484375 L10,18.296875 L10.234375,19.234375 C10.5859375,19.8203125 11.0546875,20.171875 11.875,20.171875 C12.6953125,20.171875 13.1640625,19.8203125 13.515625,19.234375 L13.75,18.296875 L13.75,11.1484375 L13.75,11.1484375 Z M13.75,5.7578125 C13.75,5.2890625 13.515625,4.8203125 13.1640625,4.46875 C12.8125,4.1171875 12.4609375,4 11.9921875,4 C11.5234375,4 11.0546875,4.1171875 10.703125,4.46875 C10.3515625,4.8203125 10.234375,5.2890625 10.234375,5.7578125 C10.234375,6.2265625 10.3515625,6.6953125 10.703125,7.046875 C11.0546875,7.3984375 11.5234375,7.515625 11.9921875,7.515625 C12.4609375,7.515625 12.9296875,7.3984375 13.1640625,7.046875 C13.6328125,6.6953125 13.75,6.2265625 13.75,5.7578125 Z" id="Shape"></path>
        </g>
    </g>
</svg>